<mxfile host="app.diagrams.net" agent="Mozilla/5.0 (Windows NT 10.0; Win64; x64) AppleWebKit/537.36 (KHTML, like Gecko) Chrome/131.0.0.0 Safari/537.36" version="26.0.6">
  <diagram name="Page-1" id="OR1nNp7Qg3Z7OILo2-Il">
    <mxGraphModel dx="1301" dy="532" grid="1" gridSize="10" guides="1" tooltips="1" connect="1" arrows="1" fold="1" page="1" pageScale="1" pageWidth="850" pageHeight="1100" math="0" shadow="0">
      <root>
        <mxCell id="0" />
        <mxCell id="1" parent="0" />
        <mxCell id="hsh1m6hf6okEtepq93yK-5" value="Shape &amp;lt;&amp;lt; abstract &amp;gt;&amp;gt;" style="swimlane;fontStyle=1;align=center;verticalAlign=top;childLayout=stackLayout;horizontal=1;startSize=26;horizontalStack=0;resizeParent=1;resizeParentMax=0;resizeLast=0;collapsible=1;marginBottom=0;whiteSpace=wrap;html=1;" vertex="1" parent="1">
          <mxGeometry x="240" y="20" width="160" height="130" as="geometry" />
        </mxCell>
        <mxCell id="hsh1m6hf6okEtepq93yK-6" value="+ name: str" style="text;strokeColor=none;fillColor=none;align=left;verticalAlign=top;spacingLeft=4;spacingRight=4;overflow=hidden;rotatable=0;points=[[0,0.5],[1,0.5]];portConstraint=eastwest;whiteSpace=wrap;html=1;" vertex="1" parent="hsh1m6hf6okEtepq93yK-5">
          <mxGeometry y="26" width="160" height="26" as="geometry" />
        </mxCell>
        <mxCell id="hsh1m6hf6okEtepq93yK-7" value="" style="line;strokeWidth=1;fillColor=none;align=left;verticalAlign=middle;spacingTop=-1;spacingLeft=3;spacingRight=3;rotatable=0;labelPosition=right;points=[];portConstraint=eastwest;strokeColor=inherit;" vertex="1" parent="hsh1m6hf6okEtepq93yK-5">
          <mxGeometry y="52" width="160" height="8" as="geometry" />
        </mxCell>
        <mxCell id="hsh1m6hf6okEtepq93yK-8" value="__init__ name&lt;div&gt;__str__ print name&lt;/div&gt;&lt;div&gt;&lt;div&gt;calc_area : float &amp;lt;&amp;lt;abs&amp;gt;&amp;gt;&lt;/div&gt;&lt;div&gt;calc_hekef : float &amp;lt;&amp;lt;abs&amp;gt;&amp;gt;&lt;/div&gt;&lt;/div&gt;" style="text;strokeColor=none;fillColor=none;align=left;verticalAlign=top;spacingLeft=4;spacingRight=4;overflow=hidden;rotatable=0;points=[[0,0.5],[1,0.5]];portConstraint=eastwest;whiteSpace=wrap;html=1;" vertex="1" parent="hsh1m6hf6okEtepq93yK-5">
          <mxGeometry y="60" width="160" height="70" as="geometry" />
        </mxCell>
        <mxCell id="hsh1m6hf6okEtepq93yK-9" value="Triangle" style="swimlane;fontStyle=1;align=center;verticalAlign=top;childLayout=stackLayout;horizontal=1;startSize=26;horizontalStack=0;resizeParent=1;resizeParentMax=0;resizeLast=0;collapsible=1;marginBottom=0;whiteSpace=wrap;html=1;" vertex="1" parent="1">
          <mxGeometry x="90" y="170" width="160" height="170" as="geometry" />
        </mxCell>
        <mxCell id="hsh1m6hf6okEtepq93yK-10" value="+ a, b, c, h : float&lt;div&gt;+ name: str &amp;lt;&amp;lt; auto&amp;gt;&amp;gt;&lt;/div&gt;" style="text;strokeColor=none;fillColor=none;align=left;verticalAlign=top;spacingLeft=4;spacingRight=4;overflow=hidden;rotatable=0;points=[[0,0.5],[1,0.5]];portConstraint=eastwest;whiteSpace=wrap;html=1;" vertex="1" parent="hsh1m6hf6okEtepq93yK-9">
          <mxGeometry y="26" width="160" height="44" as="geometry" />
        </mxCell>
        <mxCell id="hsh1m6hf6okEtepq93yK-11" value="" style="line;strokeWidth=1;fillColor=none;align=left;verticalAlign=middle;spacingTop=-1;spacingLeft=3;spacingRight=3;rotatable=0;labelPosition=right;points=[];portConstraint=eastwest;strokeColor=inherit;" vertex="1" parent="hsh1m6hf6okEtepq93yK-9">
          <mxGeometry y="70" width="160" height="8" as="geometry" />
        </mxCell>
        <mxCell id="hsh1m6hf6okEtepq93yK-12" value="__init __ a, b, c, h&lt;div&gt;__str__&lt;/div&gt;&lt;div&gt;calc_area : float&lt;/div&gt;&lt;div&gt;calc_hekef : float&lt;/div&gt;" style="text;strokeColor=none;fillColor=none;align=left;verticalAlign=top;spacingLeft=4;spacingRight=4;overflow=hidden;rotatable=0;points=[[0,0.5],[1,0.5]];portConstraint=eastwest;whiteSpace=wrap;html=1;" vertex="1" parent="hsh1m6hf6okEtepq93yK-9">
          <mxGeometry y="78" width="160" height="92" as="geometry" />
        </mxCell>
        <mxCell id="hsh1m6hf6okEtepq93yK-22" value="" style="edgeStyle=orthogonalEdgeStyle;rounded=0;orthogonalLoop=1;jettySize=auto;html=1;" edge="1" parent="1" source="hsh1m6hf6okEtepq93yK-13" target="hsh1m6hf6okEtepq93yK-8">
          <mxGeometry relative="1" as="geometry">
            <Array as="points">
              <mxPoint x="420" y="115" />
            </Array>
          </mxGeometry>
        </mxCell>
        <mxCell id="hsh1m6hf6okEtepq93yK-13" value="Rectangle" style="swimlane;fontStyle=1;align=center;verticalAlign=top;childLayout=stackLayout;horizontal=1;startSize=26;horizontalStack=0;resizeParent=1;resizeParentMax=0;resizeLast=0;collapsible=1;marginBottom=0;whiteSpace=wrap;html=1;" vertex="1" parent="1">
          <mxGeometry x="290" y="170" width="160" height="150" as="geometry" />
        </mxCell>
        <mxCell id="hsh1m6hf6okEtepq93yK-14" value="+ a, b: float" style="text;strokeColor=none;fillColor=none;align=left;verticalAlign=top;spacingLeft=4;spacingRight=4;overflow=hidden;rotatable=0;points=[[0,0.5],[1,0.5]];portConstraint=eastwest;whiteSpace=wrap;html=1;" vertex="1" parent="hsh1m6hf6okEtepq93yK-13">
          <mxGeometry y="26" width="160" height="26" as="geometry" />
        </mxCell>
        <mxCell id="hsh1m6hf6okEtepq93yK-15" value="" style="line;strokeWidth=1;fillColor=none;align=left;verticalAlign=middle;spacingTop=-1;spacingLeft=3;spacingRight=3;rotatable=0;labelPosition=right;points=[];portConstraint=eastwest;strokeColor=inherit;" vertex="1" parent="hsh1m6hf6okEtepq93yK-13">
          <mxGeometry y="52" width="160" height="8" as="geometry" />
        </mxCell>
        <mxCell id="hsh1m6hf6okEtepq93yK-16" value="__init __ a, b&lt;div&gt;__str__&lt;/div&gt;&lt;div&gt;calc_area : float&lt;/div&gt;&lt;div&gt;calc_hekef : float&lt;/div&gt;" style="text;strokeColor=none;fillColor=none;align=left;verticalAlign=top;spacingLeft=4;spacingRight=4;overflow=hidden;rotatable=0;points=[[0,0.5],[1,0.5]];portConstraint=eastwest;whiteSpace=wrap;html=1;" vertex="1" parent="hsh1m6hf6okEtepq93yK-13">
          <mxGeometry y="60" width="160" height="90" as="geometry" />
        </mxCell>
        <mxCell id="hsh1m6hf6okEtepq93yK-23" style="edgeStyle=orthogonalEdgeStyle;rounded=0;orthogonalLoop=1;jettySize=auto;html=1;" edge="1" parent="1" source="hsh1m6hf6okEtepq93yK-17" target="hsh1m6hf6okEtepq93yK-6">
          <mxGeometry relative="1" as="geometry" />
        </mxCell>
        <mxCell id="hsh1m6hf6okEtepq93yK-17" value="Circle" style="swimlane;fontStyle=1;align=center;verticalAlign=top;childLayout=stackLayout;horizontal=1;startSize=26;horizontalStack=0;resizeParent=1;resizeParentMax=0;resizeLast=0;collapsible=1;marginBottom=0;whiteSpace=wrap;html=1;" vertex="1" parent="1">
          <mxGeometry x="490" y="170" width="160" height="140" as="geometry" />
        </mxCell>
        <mxCell id="hsh1m6hf6okEtepq93yK-18" value="+ radius: float" style="text;strokeColor=none;fillColor=none;align=left;verticalAlign=top;spacingLeft=4;spacingRight=4;overflow=hidden;rotatable=0;points=[[0,0.5],[1,0.5]];portConstraint=eastwest;whiteSpace=wrap;html=1;" vertex="1" parent="hsh1m6hf6okEtepq93yK-17">
          <mxGeometry y="26" width="160" height="26" as="geometry" />
        </mxCell>
        <mxCell id="hsh1m6hf6okEtepq93yK-19" value="" style="line;strokeWidth=1;fillColor=none;align=left;verticalAlign=middle;spacingTop=-1;spacingLeft=3;spacingRight=3;rotatable=0;labelPosition=right;points=[];portConstraint=eastwest;strokeColor=inherit;" vertex="1" parent="hsh1m6hf6okEtepq93yK-17">
          <mxGeometry y="52" width="160" height="8" as="geometry" />
        </mxCell>
        <mxCell id="hsh1m6hf6okEtepq93yK-20" value="__init __ a, b&lt;div&gt;__str__&lt;/div&gt;&lt;div&gt;calc_area : float&lt;/div&gt;&lt;div&gt;calc_hekef : float&lt;/div&gt;" style="text;strokeColor=none;fillColor=none;align=left;verticalAlign=top;spacingLeft=4;spacingRight=4;overflow=hidden;rotatable=0;points=[[0,0.5],[1,0.5]];portConstraint=eastwest;whiteSpace=wrap;html=1;" vertex="1" parent="hsh1m6hf6okEtepq93yK-17">
          <mxGeometry y="60" width="160" height="80" as="geometry" />
        </mxCell>
        <mxCell id="hsh1m6hf6okEtepq93yK-21" style="edgeStyle=orthogonalEdgeStyle;rounded=0;orthogonalLoop=1;jettySize=auto;html=1;entryX=0.024;entryY=0.222;entryDx=0;entryDy=0;entryPerimeter=0;" edge="1" parent="1" source="hsh1m6hf6okEtepq93yK-9" target="hsh1m6hf6okEtepq93yK-8">
          <mxGeometry relative="1" as="geometry" />
        </mxCell>
        <mxCell id="hsh1m6hf6okEtepq93yK-28" value="" style="edgeStyle=orthogonalEdgeStyle;rounded=0;orthogonalLoop=1;jettySize=auto;html=1;" edge="1" parent="1" source="hsh1m6hf6okEtepq93yK-24" target="hsh1m6hf6okEtepq93yK-12">
          <mxGeometry relative="1" as="geometry" />
        </mxCell>
        <mxCell id="hsh1m6hf6okEtepq93yK-24" value="TriangleEqualSides" style="swimlane;fontStyle=1;align=center;verticalAlign=top;childLayout=stackLayout;horizontal=1;startSize=26;horizontalStack=0;resizeParent=1;resizeParentMax=0;resizeLast=0;collapsible=1;marginBottom=0;whiteSpace=wrap;html=1;" vertex="1" parent="1">
          <mxGeometry x="90" y="380" width="160" height="126" as="geometry" />
        </mxCell>
        <mxCell id="hsh1m6hf6okEtepq93yK-26" value="" style="line;strokeWidth=1;fillColor=none;align=left;verticalAlign=middle;spacingTop=-1;spacingLeft=3;spacingRight=3;rotatable=0;labelPosition=right;points=[];portConstraint=eastwest;strokeColor=inherit;" vertex="1" parent="hsh1m6hf6okEtepq93yK-24">
          <mxGeometry y="26" width="160" height="8" as="geometry" />
        </mxCell>
        <mxCell id="hsh1m6hf6okEtepq93yK-27" value="__init __ sides_len, h&lt;div&gt;__str__&lt;/div&gt;&lt;div&gt;calc_area : float&lt;/div&gt;&lt;div&gt;calc_hekef : float&lt;/div&gt;" style="text;strokeColor=none;fillColor=none;align=left;verticalAlign=top;spacingLeft=4;spacingRight=4;overflow=hidden;rotatable=0;points=[[0,0.5],[1,0.5]];portConstraint=eastwest;whiteSpace=wrap;html=1;" vertex="1" parent="hsh1m6hf6okEtepq93yK-24">
          <mxGeometry y="34" width="160" height="92" as="geometry" />
        </mxCell>
        <mxCell id="hsh1m6hf6okEtepq93yK-35" value="" style="edgeStyle=orthogonalEdgeStyle;rounded=0;orthogonalLoop=1;jettySize=auto;html=1;entryX=0.492;entryY=1.011;entryDx=0;entryDy=0;entryPerimeter=0;" edge="1" parent="1" source="hsh1m6hf6okEtepq93yK-31" target="hsh1m6hf6okEtepq93yK-16">
          <mxGeometry relative="1" as="geometry" />
        </mxCell>
        <mxCell id="hsh1m6hf6okEtepq93yK-31" value="Square [ribua]" style="swimlane;fontStyle=1;align=center;verticalAlign=top;childLayout=stackLayout;horizontal=1;startSize=26;horizontalStack=0;resizeParent=1;resizeParentMax=0;resizeLast=0;collapsible=1;marginBottom=0;whiteSpace=wrap;html=1;" vertex="1" parent="1">
          <mxGeometry x="290" y="350" width="160" height="150" as="geometry" />
        </mxCell>
        <mxCell id="hsh1m6hf6okEtepq93yK-32" value="??????????" style="text;strokeColor=none;fillColor=none;align=left;verticalAlign=top;spacingLeft=4;spacingRight=4;overflow=hidden;rotatable=0;points=[[0,0.5],[1,0.5]];portConstraint=eastwest;whiteSpace=wrap;html=1;" vertex="1" parent="hsh1m6hf6okEtepq93yK-31">
          <mxGeometry y="26" width="160" height="26" as="geometry" />
        </mxCell>
        <mxCell id="hsh1m6hf6okEtepq93yK-33" value="" style="line;strokeWidth=1;fillColor=none;align=left;verticalAlign=middle;spacingTop=-1;spacingLeft=3;spacingRight=3;rotatable=0;labelPosition=right;points=[];portConstraint=eastwest;strokeColor=inherit;" vertex="1" parent="hsh1m6hf6okEtepq93yK-31">
          <mxGeometry y="52" width="160" height="8" as="geometry" />
        </mxCell>
        <mxCell id="hsh1m6hf6okEtepq93yK-34" value="__init __ a, b&lt;div&gt;__str__&lt;/div&gt;&lt;div&gt;calc_area : float&lt;/div&gt;&lt;div&gt;calc_hekef : float&lt;/div&gt;" style="text;strokeColor=none;fillColor=none;align=left;verticalAlign=top;spacingLeft=4;spacingRight=4;overflow=hidden;rotatable=0;points=[[0,0.5],[1,0.5]];portConstraint=eastwest;whiteSpace=wrap;html=1;" vertex="1" parent="hsh1m6hf6okEtepq93yK-31">
          <mxGeometry y="60" width="160" height="90" as="geometry" />
        </mxCell>
      </root>
    </mxGraphModel>
  </diagram>
</mxfile>
